<?xml version="1.0" encoding="UTF-8"?><svg height="60" viewBox="0 0 60 60" width="60" xmlns="http://www.w3.org/2000/svg" xmlns:xlink="http://www.w3.org/1999/xlink"><linearGradient id="a" gradientTransform="matrix(1 0 0 -1 0 72)" gradientUnits="userSpaceOnUse" x1="48.55626" x2="31.57989" y1="47.60804" y2="21.72383"><stop offset=".174" stop-color="#078efc"/><stop offset=".204" stop-color="#118afc"/><stop offset=".435" stop-color="#5971fc"/><stop offset=".627" stop-color="#8e5efc"/><stop offset=".77" stop-color="#af52fc"/><stop offset=".849" stop-color="#bb4efc"/></linearGradient><linearGradient id="b" x1="5.93873" x2="40.36642" xlink:href="#a" y1="45.09089" y2="70.99211"/><linearGradient id="c" gradientTransform="matrix(1 0 0 -1 0 72)" gradientUnits="userSpaceOnUse" x1="8.33588" x2="51.61754" y1="19.58561" y2="47.39799"><stop offset="0" stop-color="#078efc"/><stop offset=".106" stop-color="#15a7d3"/><stop offset=".228" stop-color="#23bfaa"/><stop offset=".348" stop-color="#2dd28b"/><stop offset=".463" stop-color="#35df74"/><stop offset=".573" stop-color="#39e767"/><stop offset=".67" stop-color="#3bea62"/></linearGradient><path d="m51.34276 19.85512 8.65724 19.23357-12.24045 20.9104-29.40155-23.95554 15.036-14.49255z" fill="url(#a)"/><path d="m38.8437 38.35282 8.91585 21.64718-27.1622-9.33686-2.23935-14.61868z" fill="#bb4efc"/><path d="m21.40582 8.12461 12.5 6.406-11.24964 34.06281-22.65618-.23592 4.86715-10.79319-4.86715-13.79297z" fill="#078efc"/><path d="m37.087 0 5.91153 20.11645-42.99853 3.65489 13.675-23.77134z" fill="url(#b)"/><path d="m60 12.73951-25.156 5.97049-34.844 29.6475 22.4738 11.6425 19.52212-20.12643z" fill="url(#c)"/><path d="m10.00015 10.00015h39.9997v39.9997h-39.9997z"/><g fill="#fff"><path d="m13.99985 43.39962h14.99977v2.4h-14.99977z"/><path d="m12.6279 23.04816v-.049a8.70392 8.70392 0 0 1 8.4041-8.99478c.08167-.00272.16242-.00453.24409-.00453a8.78465 8.78465 0 0 1 6.48045 2.38639l-2.28658 2.909a5.90938 5.90938 0 0 0 -4.31274-1.76484 5.11959 5.11959 0 0 0 -4.73648 5.42065v.049a5.09552 5.09552 0 0 0 4.65482 5.5014c.11342.00908.22775.01543.34208.01724a5.57559 5.57559 0 0 0 3.41626-1.04438v-2.4862h-3.6522v-3.30554h7.16371v7.5566a10.385 10.385 0 0 1 -7.04575 2.76113 8.48383 8.48383 0 0 1 -8.68266-8.27977q-.00678-.33618.0109-.67237z"/><path d="m29.86979 23.04816v-.049a8.76827 8.76827 0 0 1 17.53044-.46276c.00363.13792.00363.27674.0009.41467v.049a8.76827 8.76827 0 0 1 -17.53043.46277c-.00363-.13793-.00363-.27584-.00091-.41468zm13.73853 0v-.049a5.16709 5.16709 0 0 0 -4.85354-5.46329c-.04809-.00273-.09527-.00454-.14336-.00636a5.08693 5.08693 0 0 0 -4.95789 5.21377c.00182.069.00454.13792.00908.20779v.049a5.16707 5.16707 0 0 0 4.85353 5.46329c.04809.00273.09527.00454.14337.00635a5.08691 5.08691 0 0 0 4.95788-5.21371c-.00182-.069-.00454-.13888-.00907-.20784z"/></g></svg>